<svg width="600" height="400" viewBox="0 0 600 400" xmlns="http://www.w3.org/2000/svg">
  <!-- Phone Frame -->
  <rect x="50" y="50" width="200" height="300" rx="20" fill="#1a1a1a" stroke="#333" stroke-width="2"/>
  <rect x="60" y="80" width="180" height="240" rx="5" fill="#000"/>

  <!-- Status Bar -->
  <rect x="60" y="80" width="180" height="20" fill="#1a1a1a"/>
  <text x="70" y="94" fill="white" font-family="Arial, sans-serif" font-size="8">9:41 AM</text>
  <text x="220" y="94" fill="white" font-family="Arial, sans-serif" font-size="8" text-anchor="end">100%</text>

  <!-- App Header -->
  <rect x="60" y="100" width="180" height="40" fill="#667eea"/>
  <text x="150" y="124" fill="white" font-family="Arial, sans-serif" font-size="14" font-weight="bold" text-anchor="middle">Manuel</text>

  <!-- Voice Query Button -->
  <circle cx="150" cy="180" r="30" fill="#764ba2"/>
  <circle cx="150" cy="180" r="20" fill="white" opacity="0.3"/>
  <text x="150" y="186" fill="white" font-family="Arial, sans-serif" font-size="12" text-anchor="middle">🎤</text>

  <!-- Manual List -->
  <rect x="70" y="220" width="160" height="20" fill="#f0f0f0" rx="3"/>
  <text x="80" y="233" fill="#333" font-family="Arial, sans-serif" font-size="9">📋 User Manual.pdf</text>

  <rect x="70" y="245" width="160" height="20" fill="#f0f0f0" rx="3"/>
  <text x="80" y="258" fill="#333" font-family="Arial, sans-serif" font-size="9">📋 Installation Guide.pdf</text>

  <!-- Second Phone Frame -->
  <rect x="300" y="50" width="200" height="300" rx="20" fill="#1a1a1a" stroke="#333" stroke-width="2"/>
  <rect x="310" y="80" width="180" height="240" rx="5" fill="#000"/>

  <!-- Status Bar -->
  <rect x="310" y="80" width="180" height="20" fill="#1a1a1a"/>
  <text x="320" y="94" fill="white" font-family="Arial, sans-serif" font-size="8">9:41 AM</text>
  <text x="470" y="94" fill="white" font-family="Arial, sans-serif" font-size="8" text-anchor="end">100%</text>

  <!-- App Header -->
  <rect x="310" y="100" width="180" height="40" fill="#667eea"/>
  <text x="400" y="124" fill="white" font-family="Arial, sans-serif" font-size="14" font-weight="bold" text-anchor="middle">Voice Query</text>

  <!-- Query Result -->
  <rect x="320" y="150" width="160" height="80" fill="#f8f9fa" rx="5"/>
  <text x="330" y="165" fill="#333" font-family="Arial, sans-serif" font-size="9" font-weight="bold">Q: How do I install?</text>
  <text x="330" y="180" fill="#666" font-family="Arial, sans-serif" font-size="8">A: Follow these steps:</text>
  <text x="330" y="195" fill="#666" font-family="Arial, sans-serif" font-size="8">1. Download the installer</text>
  <text x="330" y="210" fill="#666" font-family="Arial, sans-serif" font-size="8">2. Run setup.exe</text>
  <text x="330" y="225" fill="#666" font-family="Arial, sans-serif" font-size="8">3. Follow the wizard</text>

  <!-- Source Card -->
  <rect x="320" y="240" width="160" height="40" fill="#e3f2fd" rx="3"/>
  <text x="330" y="255" fill="#1976d2" font-family="Arial, sans-serif" font-size="8" font-weight="bold">📄 Installation Guide</text>
  <text x="330" y="270" fill="#666" font-family="Arial, sans-serif" font-size="8">Page 2 • View PDF</text>

  <!-- Title -->
  <text x="300" y="30" fill="#333" font-family="Arial, sans-serif" font-size="16" font-weight="bold" text-anchor="middle">iOS App Interface</text>
</svg>
